<svg xmlns="http://www.w3.org/2000/svg" viewBox="0 0 227.41 178.88">
    <defs>
        <style>
            .cls-1{fill:#cf4f36;}.cls-2{fill:#8cc7c4;}.cls-2,.cls-5,.cls-6{fill-rule:evenodd;}.cls-3{fill:#fdb913;}.cls-4{fill:#f58220;}.cls-5{fill:#7cbcd9;}.cls-6{fill:#b9daea;}.cls-7{fill:#231f20;}
        </style>
    </defs>
    <title>Middel 1</title>
    <g id="Laag_2" data-name="Laag 2">
        <g id="red">
            <path class="cls-1"
                  d="M171.55,132.88,160.25,126a63.21,63.21,0,0,1-54,30.34c-1.87,0-3.72-.09-5.54-.25L99.47,170c2.23.19,4.48.3,6.77.3a77.23,77.23,0,0,0,65.54-36.43A.73.73,0,0,0,171.55,132.88Z"/>
        </g>
        <g id="green">
            <path class="cls-2"
                  d="M98.74,178.23l2-22.19A63.08,63.08,0,0,1,58,134l-17,14.39a.71.71,0,0,0-.08,1,86.09,86.09,0,0,0,57,29.52A.72.72,0,0,0,98.74,178.23Z"/>
        </g>
        <g id="light_orange" data-name="light orange">
            <path class="cls-3"
                  d="M106.24,15.82a76.73,76.73,0,0,0-15.93,1.67L93.2,31.18h-.07a63.23,63.23,0,0,1,65.08,25.87l11.48-7.94A77.17,77.17,0,0,0,106.24,15.82Z"/>
        </g>
        <g id="orange">
            <path class="cls-4"
                  d="M164.11,4.88,140.92,40.2a63.35,63.35,0,0,1,24.28,30l39.43-15.27A.72.72,0,0,0,205,54,106.86,106.86,0,0,0,165.1,4.67.72.72,0,0,0,164.11,4.88Z"/>
        </g>
        <g id="blue">
            <path class="cls-5"
                  d="M85.9,0A95.4,95.4,0,0,0,11,93H43A63.26,63.26,0,0,1,93.2,31.18L86.75.57A.71.71,0,0,0,85.9,0Z"/>
            <path class="cls-6"
                  d="M43,93.06A62.88,62.88,0,0,1,52.59,59.6L16.73,37.24a.7.7,0,0,0-1,.23A106.21,106.21,0,0,0,3.16,118.84a.71.71,0,0,0,.87.52L45,108.82A63.48,63.48,0,0,1,43,93.06Z"/>
        </g>
        <g id="black">
            <path class="cls-7"
                  d="M74.88,74.39l-4.4,30.24a3,3,0,0,0,.4,2.11,2.56,2.56,0,0,0,2.05.64H87.1l-.25,8.68a184.3,184.3,0,0,1-19,.67,9.14,9.14,0,0,1-7-2.69,8.22,8.22,0,0,1-1.9-7.09L63.4,74.39Z"/>
            <path class="cls-7" d="M122.34,83.25h-12l-4.71,33.29H94.12l4.7-33.29h-12L88,74.39h35.55Z"/>
            <path class="cls-7"
                  d="M122.09,116.54,128,74.39q5.86-.6,16.31-.61c6.15,0,10.34,1.07,12.58,3.18s3,5.9,2.26,11.36-2.26,9-4.58,10.84-6.21,2.78-11.67,2.78a58.39,58.39,0,0,1-7.33-.48l-2.07,15.08Zm14.66-23H142c2,0,3.43-.37,4.18-1.1s1.31-2.41,1.68-5c.29-2.08.16-3.49-.37-4.22s-1.69-1.1-3.48-1.1l-5.68.06Z"/>
        </g>
    </g>
</svg>
